<mxfile host="app.diagrams.net" modified="2023-08-26T18:31:37.303Z" agent="Mozilla/5.0 (Windows NT 10.0; Win64; x64) AppleWebKit/537.36 (KHTML, like Gecko) Chrome/116.0.0.0 Safari/537.36" etag="TJFmlh_52sAeonZlBUvK" version="21.6.9" type="github">
  <diagram name="PÃ¡gina-1" id="PgzkXJJdejxD_gEvpgV4">
    <mxGraphModel dx="1732" dy="758" grid="1" gridSize="10" guides="1" tooltips="1" connect="1" arrows="1" fold="1" page="1" pageScale="1" pageWidth="827" pageHeight="1169" math="0" shadow="0">
      <root>
        <mxCell id="0" />
        <mxCell id="1" parent="0" />
        <mxCell id="DdAl2PXj_568B_V_bTr--29" style="edgeStyle=orthogonalEdgeStyle;rounded=0;orthogonalLoop=1;jettySize=auto;html=1;exitX=1;exitY=0.5;exitDx=0;exitDy=0;entryX=0;entryY=0.5;entryDx=0;entryDy=0;" edge="1" parent="1" source="DdAl2PXj_568B_V_bTr--23" target="DdAl2PXj_568B_V_bTr--26">
          <mxGeometry relative="1" as="geometry" />
        </mxCell>
        <mxCell id="DdAl2PXj_568B_V_bTr--23" value="Cliente" style="whiteSpace=wrap;html=1;align=center;" vertex="1" parent="1">
          <mxGeometry x="250" y="220" width="100" height="40" as="geometry" />
        </mxCell>
        <mxCell id="DdAl2PXj_568B_V_bTr--35" style="edgeStyle=orthogonalEdgeStyle;rounded=0;orthogonalLoop=1;jettySize=auto;html=1;exitX=0;exitY=0.5;exitDx=0;exitDy=0;" edge="1" parent="1" source="DdAl2PXj_568B_V_bTr--24" target="DdAl2PXj_568B_V_bTr--26">
          <mxGeometry relative="1" as="geometry" />
        </mxCell>
        <mxCell id="DdAl2PXj_568B_V_bTr--38" style="edgeStyle=orthogonalEdgeStyle;rounded=0;orthogonalLoop=1;jettySize=auto;html=1;entryX=0.5;entryY=0;entryDx=0;entryDy=0;" edge="1" parent="1" source="DdAl2PXj_568B_V_bTr--24" target="DdAl2PXj_568B_V_bTr--27">
          <mxGeometry relative="1" as="geometry" />
        </mxCell>
        <mxCell id="DdAl2PXj_568B_V_bTr--24" value="Producto" style="whiteSpace=wrap;html=1;align=center;" vertex="1" parent="1">
          <mxGeometry x="690" y="220" width="100" height="40" as="geometry" />
        </mxCell>
        <mxCell id="DdAl2PXj_568B_V_bTr--39" style="edgeStyle=orthogonalEdgeStyle;rounded=0;orthogonalLoop=1;jettySize=auto;html=1;exitX=0.5;exitY=0;exitDx=0;exitDy=0;entryX=0.5;entryY=1;entryDx=0;entryDy=0;" edge="1" parent="1" source="DdAl2PXj_568B_V_bTr--25" target="DdAl2PXj_568B_V_bTr--27">
          <mxGeometry relative="1" as="geometry" />
        </mxCell>
        <mxCell id="DdAl2PXj_568B_V_bTr--25" value="Proveedor" style="whiteSpace=wrap;html=1;align=center;" vertex="1" parent="1">
          <mxGeometry x="690" y="440" width="100" height="40" as="geometry" />
        </mxCell>
        <mxCell id="DdAl2PXj_568B_V_bTr--26" value="Compra&amp;nbsp;" style="shape=rhombus;perimeter=rhombusPerimeter;whiteSpace=wrap;html=1;align=center;" vertex="1" parent="1">
          <mxGeometry x="460" y="210" width="120" height="60" as="geometry" />
        </mxCell>
        <mxCell id="DdAl2PXj_568B_V_bTr--27" value="Suministra" style="shape=rhombus;perimeter=rhombusPerimeter;whiteSpace=wrap;html=1;align=center;" vertex="1" parent="1">
          <mxGeometry x="680" y="320" width="120" height="60" as="geometry" />
        </mxCell>
        <mxCell id="DdAl2PXj_568B_V_bTr--31" value="1" style="text;strokeColor=none;fillColor=none;spacingLeft=4;spacingRight=4;overflow=hidden;rotatable=0;points=[[0,0.5],[1,0.5]];portConstraint=eastwest;fontSize=12;whiteSpace=wrap;html=1;" vertex="1" parent="1">
          <mxGeometry x="350" y="210" width="40" height="30" as="geometry" />
        </mxCell>
        <mxCell id="DdAl2PXj_568B_V_bTr--32" value="N" style="text;strokeColor=none;fillColor=none;spacingLeft=4;spacingRight=4;overflow=hidden;rotatable=0;points=[[0,0.5],[1,0.5]];portConstraint=eastwest;fontSize=12;whiteSpace=wrap;html=1;" vertex="1" parent="1">
          <mxGeometry x="440" y="210" width="40" height="30" as="geometry" />
        </mxCell>
        <mxCell id="DdAl2PXj_568B_V_bTr--33" value="N" style="text;strokeColor=none;fillColor=none;spacingLeft=4;spacingRight=4;overflow=hidden;rotatable=0;points=[[0,0.5],[1,0.5]];portConstraint=eastwest;fontSize=12;whiteSpace=wrap;html=1;" vertex="1" parent="1">
          <mxGeometry x="570" y="210" width="40" height="30" as="geometry" />
        </mxCell>
        <mxCell id="DdAl2PXj_568B_V_bTr--34" value="1" style="text;strokeColor=none;fillColor=none;spacingLeft=4;spacingRight=4;overflow=hidden;rotatable=0;points=[[0,0.5],[1,0.5]];portConstraint=eastwest;fontSize=12;whiteSpace=wrap;html=1;" vertex="1" parent="1">
          <mxGeometry x="660" y="210" width="40" height="30" as="geometry" />
        </mxCell>
        <mxCell id="DdAl2PXj_568B_V_bTr--36" value="N : M" style="text;strokeColor=none;fillColor=none;spacingLeft=4;spacingRight=4;overflow=hidden;rotatable=0;points=[[0,0.5],[1,0.5]];portConstraint=eastwest;fontSize=12;whiteSpace=wrap;html=1;" vertex="1" parent="1">
          <mxGeometry x="500" y="180" width="40" height="30" as="geometry" />
        </mxCell>
        <mxCell id="DdAl2PXj_568B_V_bTr--40" value="1" style="text;strokeColor=none;fillColor=none;spacingLeft=4;spacingRight=4;overflow=hidden;rotatable=0;points=[[0,0.5],[1,0.5]];portConstraint=eastwest;fontSize=12;whiteSpace=wrap;html=1;" vertex="1" parent="1">
          <mxGeometry x="750" y="260" width="40" height="30" as="geometry" />
        </mxCell>
        <mxCell id="DdAl2PXj_568B_V_bTr--41" value="1" style="text;strokeColor=none;fillColor=none;spacingLeft=4;spacingRight=4;overflow=hidden;rotatable=0;points=[[0,0.5],[1,0.5]];portConstraint=eastwest;fontSize=12;whiteSpace=wrap;html=1;" vertex="1" parent="1">
          <mxGeometry x="750" y="310" width="40" height="30" as="geometry" />
        </mxCell>
        <mxCell id="DdAl2PXj_568B_V_bTr--42" value="1" style="text;strokeColor=none;fillColor=none;spacingLeft=4;spacingRight=4;overflow=hidden;rotatable=0;points=[[0,0.5],[1,0.5]];portConstraint=eastwest;fontSize=12;whiteSpace=wrap;html=1;" vertex="1" parent="1">
          <mxGeometry x="750" y="420" width="40" height="30" as="geometry" />
        </mxCell>
        <mxCell id="DdAl2PXj_568B_V_bTr--43" value="N" style="text;strokeColor=none;fillColor=none;spacingLeft=4;spacingRight=4;overflow=hidden;rotatable=0;points=[[0,0.5],[1,0.5]];portConstraint=eastwest;fontSize=12;whiteSpace=wrap;html=1;" vertex="1" parent="1">
          <mxGeometry x="750" y="370" width="40" height="30" as="geometry" />
        </mxCell>
        <mxCell id="DdAl2PXj_568B_V_bTr--45" value="1: N" style="text;strokeColor=none;fillColor=none;spacingLeft=4;spacingRight=4;overflow=hidden;rotatable=0;points=[[0,0.5],[1,0.5]];portConstraint=eastwest;fontSize=12;whiteSpace=wrap;html=1;" vertex="1" parent="1">
          <mxGeometry x="650" y="310" width="40" height="30" as="geometry" />
        </mxCell>
        <mxCell id="DdAl2PXj_568B_V_bTr--48" style="edgeStyle=orthogonalEdgeStyle;rounded=0;orthogonalLoop=1;jettySize=auto;html=1;entryX=0;entryY=0.5;entryDx=0;entryDy=0;" edge="1" parent="1" source="DdAl2PXj_568B_V_bTr--46" target="DdAl2PXj_568B_V_bTr--25">
          <mxGeometry relative="1" as="geometry" />
        </mxCell>
        <mxCell id="DdAl2PXj_568B_V_bTr--46" value="RFC" style="ellipse;whiteSpace=wrap;html=1;align=center;" vertex="1" parent="1">
          <mxGeometry x="530" y="440" width="80" height="40" as="geometry" />
        </mxCell>
        <mxCell id="DdAl2PXj_568B_V_bTr--49" style="edgeStyle=orthogonalEdgeStyle;rounded=0;orthogonalLoop=1;jettySize=auto;html=1;entryX=0.5;entryY=0;entryDx=0;entryDy=0;" edge="1" parent="1" source="DdAl2PXj_568B_V_bTr--47" target="DdAl2PXj_568B_V_bTr--23">
          <mxGeometry relative="1" as="geometry" />
        </mxCell>
        <mxCell id="DdAl2PXj_568B_V_bTr--47" value="RFC" style="ellipse;whiteSpace=wrap;html=1;align=center;" vertex="1" parent="1">
          <mxGeometry x="260" y="140" width="80" height="40" as="geometry" />
        </mxCell>
        <mxCell id="DdAl2PXj_568B_V_bTr--51" style="edgeStyle=orthogonalEdgeStyle;rounded=0;orthogonalLoop=1;jettySize=auto;html=1;entryX=1;entryY=0.5;entryDx=0;entryDy=0;" edge="1" parent="1" source="DdAl2PXj_568B_V_bTr--50" target="DdAl2PXj_568B_V_bTr--24">
          <mxGeometry relative="1" as="geometry" />
        </mxCell>
        <mxCell id="DdAl2PXj_568B_V_bTr--50" value="Codigo" style="ellipse;whiteSpace=wrap;html=1;align=center;" vertex="1" parent="1">
          <mxGeometry x="860" y="220" width="80" height="40" as="geometry" />
        </mxCell>
        <mxCell id="DdAl2PXj_568B_V_bTr--53" style="edgeStyle=orthogonalEdgeStyle;rounded=0;orthogonalLoop=1;jettySize=auto;html=1;entryX=0.5;entryY=1;entryDx=0;entryDy=0;" edge="1" parent="1" source="DdAl2PXj_568B_V_bTr--52" target="DdAl2PXj_568B_V_bTr--26">
          <mxGeometry relative="1" as="geometry" />
        </mxCell>
        <mxCell id="DdAl2PXj_568B_V_bTr--52" value="RFC" style="ellipse;whiteSpace=wrap;html=1;align=center;" vertex="1" parent="1">
          <mxGeometry x="400" y="310" width="70" height="40" as="geometry" />
        </mxCell>
        <mxCell id="DdAl2PXj_568B_V_bTr--55" style="edgeStyle=orthogonalEdgeStyle;rounded=0;orthogonalLoop=1;jettySize=auto;html=1;" edge="1" parent="1" source="DdAl2PXj_568B_V_bTr--54" target="DdAl2PXj_568B_V_bTr--26">
          <mxGeometry relative="1" as="geometry" />
        </mxCell>
        <mxCell id="DdAl2PXj_568B_V_bTr--54" value="Codigo" style="ellipse;whiteSpace=wrap;html=1;align=center;" vertex="1" parent="1">
          <mxGeometry x="555" y="310" width="70" height="45" as="geometry" />
        </mxCell>
        <mxCell id="DdAl2PXj_568B_V_bTr--57" style="edgeStyle=orthogonalEdgeStyle;rounded=0;orthogonalLoop=1;jettySize=auto;html=1;entryX=0.5;entryY=0;entryDx=0;entryDy=0;" edge="1" parent="1" source="DdAl2PXj_568B_V_bTr--56" target="DdAl2PXj_568B_V_bTr--24">
          <mxGeometry relative="1" as="geometry" />
        </mxCell>
        <mxCell id="DdAl2PXj_568B_V_bTr--56" value="RFC" style="ellipse;whiteSpace=wrap;html=1;align=center;" vertex="1" parent="1">
          <mxGeometry x="705" y="110" width="70" height="45" as="geometry" />
        </mxCell>
        <mxCell id="DdAl2PXj_568B_V_bTr--73" style="edgeStyle=orthogonalEdgeStyle;rounded=0;orthogonalLoop=1;jettySize=auto;html=1;exitX=1;exitY=0.5;exitDx=0;exitDy=0;entryX=0;entryY=0;entryDx=0;entryDy=0;" edge="1" parent="1" source="DdAl2PXj_568B_V_bTr--58" target="DdAl2PXj_568B_V_bTr--23">
          <mxGeometry relative="1" as="geometry" />
        </mxCell>
        <mxCell id="DdAl2PXj_568B_V_bTr--58" value="Nombre" style="ellipse;whiteSpace=wrap;html=1;align=center;" vertex="1" parent="1">
          <mxGeometry x="110" y="155" width="80" height="40" as="geometry" />
        </mxCell>
        <mxCell id="DdAl2PXj_568B_V_bTr--72" style="edgeStyle=orthogonalEdgeStyle;rounded=0;orthogonalLoop=1;jettySize=auto;html=1;exitX=1;exitY=0.5;exitDx=0;exitDy=0;entryX=0;entryY=0.25;entryDx=0;entryDy=0;" edge="1" parent="1" source="DdAl2PXj_568B_V_bTr--59" target="DdAl2PXj_568B_V_bTr--23">
          <mxGeometry relative="1" as="geometry" />
        </mxCell>
        <mxCell id="DdAl2PXj_568B_V_bTr--59" value="Apellidos" style="ellipse;whiteSpace=wrap;html=1;align=center;" vertex="1" parent="1">
          <mxGeometry x="110" y="210" width="80" height="40" as="geometry" />
        </mxCell>
        <mxCell id="DdAl2PXj_568B_V_bTr--71" style="edgeStyle=orthogonalEdgeStyle;rounded=0;orthogonalLoop=1;jettySize=auto;html=1;entryX=0;entryY=0.75;entryDx=0;entryDy=0;" edge="1" parent="1" source="DdAl2PXj_568B_V_bTr--60" target="DdAl2PXj_568B_V_bTr--23">
          <mxGeometry relative="1" as="geometry" />
        </mxCell>
        <mxCell id="DdAl2PXj_568B_V_bTr--60" value="Direccion" style="ellipse;whiteSpace=wrap;html=1;align=center;" vertex="1" parent="1">
          <mxGeometry x="110" y="270" width="80" height="40" as="geometry" />
        </mxCell>
        <mxCell id="DdAl2PXj_568B_V_bTr--70" style="edgeStyle=orthogonalEdgeStyle;rounded=0;orthogonalLoop=1;jettySize=auto;html=1;entryX=0.5;entryY=1;entryDx=0;entryDy=0;" edge="1" parent="1" source="DdAl2PXj_568B_V_bTr--61" target="DdAl2PXj_568B_V_bTr--23">
          <mxGeometry relative="1" as="geometry" />
        </mxCell>
        <mxCell id="DdAl2PXj_568B_V_bTr--61" value="Fecha de nacimiento&amp;nbsp;" style="ellipse;whiteSpace=wrap;html=1;align=center;" vertex="1" parent="1">
          <mxGeometry x="260" y="290" width="80" height="40" as="geometry" />
        </mxCell>
        <mxCell id="DdAl2PXj_568B_V_bTr--68" style="edgeStyle=orthogonalEdgeStyle;rounded=0;orthogonalLoop=1;jettySize=auto;html=1;entryX=1.1;entryY=-0.1;entryDx=0;entryDy=0;entryPerimeter=0;" edge="1" parent="1" source="DdAl2PXj_568B_V_bTr--62" target="DdAl2PXj_568B_V_bTr--40">
          <mxGeometry relative="1" as="geometry" />
        </mxCell>
        <mxCell id="DdAl2PXj_568B_V_bTr--62" value="Precio" style="ellipse;whiteSpace=wrap;html=1;align=center;" vertex="1" parent="1">
          <mxGeometry x="860" y="270" width="80" height="40" as="geometry" />
        </mxCell>
        <mxCell id="DdAl2PXj_568B_V_bTr--69" style="edgeStyle=orthogonalEdgeStyle;rounded=0;orthogonalLoop=1;jettySize=auto;html=1;entryX=1;entryY=0.25;entryDx=0;entryDy=0;" edge="1" parent="1" source="DdAl2PXj_568B_V_bTr--63" target="DdAl2PXj_568B_V_bTr--24">
          <mxGeometry relative="1" as="geometry" />
        </mxCell>
        <mxCell id="DdAl2PXj_568B_V_bTr--63" value="Nombre" style="ellipse;whiteSpace=wrap;html=1;align=center;" vertex="1" parent="1">
          <mxGeometry x="860" y="170" width="80" height="40" as="geometry" />
        </mxCell>
        <mxCell id="DdAl2PXj_568B_V_bTr--66" style="edgeStyle=orthogonalEdgeStyle;rounded=0;orthogonalLoop=1;jettySize=auto;html=1;exitX=0;exitY=0.5;exitDx=0;exitDy=0;entryX=1;entryY=1.1;entryDx=0;entryDy=0;entryPerimeter=0;" edge="1" parent="1" source="DdAl2PXj_568B_V_bTr--64" target="DdAl2PXj_568B_V_bTr--42">
          <mxGeometry relative="1" as="geometry" />
        </mxCell>
        <mxCell id="DdAl2PXj_568B_V_bTr--64" value="Nombre&amp;nbsp;" style="ellipse;whiteSpace=wrap;html=1;align=center;" vertex="1" parent="1">
          <mxGeometry x="870" y="420" width="80" height="40" as="geometry" />
        </mxCell>
        <mxCell id="DdAl2PXj_568B_V_bTr--67" style="edgeStyle=orthogonalEdgeStyle;rounded=0;orthogonalLoop=1;jettySize=auto;html=1;entryX=1;entryY=0.75;entryDx=0;entryDy=0;" edge="1" parent="1" source="DdAl2PXj_568B_V_bTr--65" target="DdAl2PXj_568B_V_bTr--25">
          <mxGeometry relative="1" as="geometry" />
        </mxCell>
        <mxCell id="DdAl2PXj_568B_V_bTr--65" value="Direccion" style="ellipse;whiteSpace=wrap;html=1;align=center;" vertex="1" parent="1">
          <mxGeometry x="870" y="480" width="80" height="40" as="geometry" />
        </mxCell>
      </root>
    </mxGraphModel>
  </diagram>
</mxfile>
